HIERARCHY
ROOT Hips
{
    OFFSET   0.000000   0.000000   0.000000
    CHANNELS 6 Xposition Yposition Zposition Zrotation Xrotation Yrotation
    JOINT Chest
    {
        OFFSET   0.000000   8.007230   0.000000
        CHANNELS 3 Zrotation Xrotation Yrotation
        JOINT Chest2
        {
            OFFSET   0.000000  22.077100   0.000000
            CHANNELS 3 Zrotation Xrotation Yrotation
            JOINT Neck
            {
                OFFSET   0.000000  23.255100   0.000000
                CHANNELS 3 Zrotation Xrotation Yrotation
                JOINT Head
                {
                    OFFSET   0.000000  14.370100   1.956600
                    CHANNELS 3 Zrotation Xrotation Yrotation
                    End Site
                    {
                        OFFSET   0.000000  19.566000   0.000000
                    }
                }
            }
            JOINT LeftCollar
            {
                OFFSET   3.911900  19.017000  -0.467063
                CHANNELS 3 Zrotation Xrotation Yrotation
                JOINT LeftShoulder
                {
                    OFFSET  10.383700   0.000000   0.000000
                    CHANNELS 3 Zrotation Xrotation Yrotation
                    JOINT LeftElbow
                    {
                        OFFSET  26.662100   0.001193   0.000980
                        CHANNELS 3 Zrotation Xrotation Yrotation
                        JOINT LeftWrist
                        {
                            OFFSET  28.869000  -0.000059  -0.000082
                            CHANNELS 3 Zrotation Xrotation Yrotation
                            JOINT LeftFinger0
                            {
                                OFFSET   2.044650  -2.323450   3.252850
                                CHANNELS 3 Zrotation Xrotation Yrotation
                                JOINT LeftFinger01
                                {
                                    OFFSET   3.088130   0.000000   0.000000
                                    CHANNELS 3 Zrotation Xrotation Yrotation
                                    JOINT LeftFinger02
                                    {
                                        OFFSET   2.639460   0.000000   0.000000
                                        CHANNELS 3 Zrotation Xrotation Yrotation
                                        End Site
                                        {
                                            OFFSET   2.582190   0.000000   0.000000
                                        }
                                    }
                                }
                            }
                            JOINT LeftFinger1
                            {
                                OFFSET   8.364480   0.000000   3.252850
                                CHANNELS 3 Zrotation Xrotation Yrotation
                                JOINT LeftFinger11
                                {
                                    OFFSET   4.646930   0.000000   0.000000
                                    CHANNELS 3 Zrotation Xrotation Yrotation
                                    JOINT LeftFinger12
                                    {
                                        OFFSET   2.323470   0.000000   0.000000
                                        CHANNELS 3 Zrotation Xrotation Yrotation
                                        End Site
                                        {
                                            OFFSET   2.273050   0.000000   0.000000
                                        }
                                    }
                                }
                            }
                            JOINT LeftFinger2
                            {
                                OFFSET   8.364490   0.000016   1.078090
                                CHANNELS 3 Zrotation Xrotation Yrotation
                                JOINT LeftFinger21
                                {
                                    OFFSET   5.111610   0.000000   0.000000
                                    CHANNELS 3 Zrotation Xrotation Yrotation
                                    JOINT LeftFinger22
                                    {
                                        OFFSET   2.788150   0.000016   0.000000
                                        CHANNELS 3 Zrotation Xrotation Yrotation
                                        End Site
                                        {
                                            OFFSET   2.727660   0.000000   0.000000
                                        }
                                    }
                                }
                            }
                            JOINT LeftFinger3
                            {
                                OFFSET   7.899780   0.000015  -1.078090
                                CHANNELS 3 Zrotation Xrotation Yrotation
                                JOINT LeftFinger31
                                {
                                    OFFSET   4.646930   0.000000   0.000000
                                    CHANNELS 3 Zrotation Xrotation Yrotation
                                    JOINT LeftFinger32
                                    {
                                        OFFSET   2.323470   0.000000   0.000000
                                        CHANNELS 3 Zrotation Xrotation Yrotation
                                        End Site
                                        {
                                            OFFSET   2.273050   0.000000   0.000000
                                        }
                                    }
                                }
                            }
                            JOINT LeftFinger4
                            {
                                OFFSET   7.435090   0.000000  -3.252850
                                CHANNELS 3 Zrotation Xrotation Yrotation
                                JOINT LeftFinger41
                                {
                                    OFFSET   3.717550   0.000000   0.000000
                                    CHANNELS 3 Zrotation Xrotation Yrotation
                                    JOINT LeftFinger42
                                    {
                                        OFFSET   1.858770   0.000000   0.000000
                                        CHANNELS 3 Zrotation Xrotation Yrotation
                                        End Site
                                        {
                                            OFFSET   1.818440   0.000000   0.000000
                                        }
                                    }
                                }
                            }
                        }
                    }
                }
            }
            JOINT RightCollar
            {
                OFFSET  -3.911910  19.017000  -0.467062
                CHANNELS 3 Zrotation Xrotation Yrotation
                JOINT RightShoulder
                {
                    OFFSET -10.383700   0.000014   0.000000
                    CHANNELS 3 Zrotation Xrotation Yrotation
                    JOINT RightElbow
                    {
                        OFFSET -26.662100   0.001225   0.001091
                        CHANNELS 3 Zrotation Xrotation Yrotation
                        JOINT RightWrist
                        {
                            OFFSET -28.869000  -0.000020  -0.000085
                            CHANNELS 3 Zrotation Xrotation Yrotation
                            JOINT RightFinger0
                            {
                                OFFSET  -2.044650  -2.323490   3.252850
                                CHANNELS 3 Zrotation Xrotation Yrotation
                                JOINT RightFinger01
                                {
                                    OFFSET  -3.088130   0.000000   0.000000
                                    CHANNELS 3 Zrotation Xrotation Yrotation
                                    JOINT RightFinger02
                                    {
                                        OFFSET  -2.639460   0.000000   0.000000
                                        CHANNELS 3 Zrotation Xrotation Yrotation
                                        End Site
                                        {
                                            OFFSET  -2.582190   0.000000   0.000000
                                        }
                                    }
                                }
                            }
                            JOINT RightFinger1
                            {
                                OFFSET  -8.364480   0.000000   3.252850
                                CHANNELS 3 Zrotation Xrotation Yrotation
                                JOINT RightFinger11
                                {
                                    OFFSET  -4.646930   0.000000   0.000000
                                    CHANNELS 3 Zrotation Xrotation Yrotation
                                    JOINT RightFinger12
                                    {
                                        OFFSET  -2.323470   0.000000   0.000000
                                        CHANNELS 3 Zrotation Xrotation Yrotation
                                        End Site
                                        {
                                            OFFSET  -2.273050   0.000000   0.000000
                                        }
                                    }
                                }
                            }
                            JOINT RightFinger2
                            {
                                OFFSET  -8.364480   0.000000   1.078090
                                CHANNELS 3 Zrotation Xrotation Yrotation
                                JOINT RightFinger21
                                {
                                    OFFSET  -5.111620   0.000000   0.000000
                                    CHANNELS 3 Zrotation Xrotation Yrotation
                                    JOINT RightFinger22
                                    {
                                        OFFSET  -2.788160   0.000000   0.000000
                                        CHANNELS 3 Zrotation Xrotation Yrotation
                                        End Site
                                        {
                                            OFFSET  -2.727660   0.000000   0.000000
                                        }
                                    }
                                }
                            }
                            JOINT RightFinger3
                            {
                                OFFSET  -7.899780   0.000000  -1.078090
                                CHANNELS 3 Zrotation Xrotation Yrotation
                                JOINT RightFinger31
                                {
                                    OFFSET  -4.646930   0.000000   0.000000
                                    CHANNELS 3 Zrotation Xrotation Yrotation
                                    JOINT RightFinger32
                                    {
                                        OFFSET  -2.323470   0.000000   0.000000
                                        CHANNELS 3 Zrotation Xrotation Yrotation
                                        End Site
                                        {
                                            OFFSET  -2.273050   0.000000   0.000000
                                        }
                                    }
                                }
                            }
                            JOINT RightFinger4
                            {
                                OFFSET  -7.435090   0.000000  -3.252850
                                CHANNELS 3 Zrotation Xrotation Yrotation
                                JOINT RightFinger41
                                {
                                    OFFSET  -3.717550   0.000000   0.000000
                                    CHANNELS 3 Zrotation Xrotation Yrotation
                                    JOINT RightFinger42
                                    {
                                        OFFSET  -1.858760   0.000000   0.000000
                                        CHANNELS 3 Zrotation Xrotation Yrotation
                                        End Site
                                        {
                                            OFFSET  -1.818440   0.000000   0.000000
                                        }
                                    }
                                }
                            }
                        }
                    }
                }
            }
        }
    }
    JOINT LeftHip
    {
        OFFSET   9.783030   0.000000   0.000000
        CHANNELS 3 Zrotation Xrotation Yrotation
        JOINT LeftKnee
        {
            OFFSET   0.000063 -41.789100   0.000608
            CHANNELS 3 Zrotation Xrotation Yrotation
            JOINT LeftAnkle
            {
                OFFSET   0.000048 -41.133200  -0.000184
                CHANNELS 3 Zrotation Xrotation Yrotation
                JOINT LeftToe
                {
                    OFFSET   0.000000  -6.358960  14.674500
                    CHANNELS 3 Zrotation Xrotation Yrotation
                    End Site
                    {
                        OFFSET   0.000000   0.000000   3.913200
                    }
                }
            }
        }
    }
    JOINT RightHip
    {
        OFFSET  -9.783030   0.000000   0.000000
        CHANNELS 3 Zrotation Xrotation Yrotation
        JOINT RightKnee
        {
            OFFSET   0.000071 -41.789100   0.001239
            CHANNELS 3 Zrotation Xrotation Yrotation
            JOINT RightAnkle
            {
                OFFSET   0.000037 -41.133200  -0.000166
                CHANNELS 3 Zrotation Xrotation Yrotation
                JOINT RightToe
                {
                    OFFSET   0.000000  -6.358960  14.674500
                    CHANNELS 3 Zrotation Xrotation Yrotation
                    End Site
                    {
                        OFFSET   0.000000   0.000000   3.913200
                    }
                }
            }
        }
    }
}
MOTION
Frames: 6
Frame Time:   0.016667
  1.373190  89.579700   0.594082  -1.669890 -12.628900   2.923630  -0.465967   7.513800   3.051860  -1.356500  14.991200   6.247270   2.763000   0.642699  -0.030771   4.540500   1.294190  -4.096640  -4.670340  -2.950510  -1.504110 -69.980000  24.325100  -3.484660  -2.036640  -8.642120 -15.331300  17.495600 -16.739400   4.870110  33.922500  30.390000 -71.611200 -32.038700  -0.007883   0.000046 -11.019300   0.001968   0.001340 -30.729100   6.787790 -11.247000 -25.689700  -0.003379  -0.000851 -17.982700  -0.002151  -0.000474 -28.399400  -0.317007   0.586343 -35.124200  -0.001954   0.002862 -23.392700  -0.001254   0.001751 -27.740900  -0.310238   0.589950 -30.460700   0.001913  -0.000000 -20.286900   0.000451  -0.001987 -29.706400  -0.330189   0.579042 -44.562200   0.001551  -0.000318 -29.678400   0.000097  -0.001902   3.233530  -3.472940   7.413760  32.862900 -11.167800  55.396600 -38.474300  -9.027550  47.915100 -65.374300  10.891200  39.651000 -21.383800  46.218800  62.734400  79.768600   0.000498  -0.002619  46.465900   0.000405  -0.002001  70.419300   4.627020   1.642980  57.671000  -0.003044   0.004264  43.253300  -0.003058  -0.006214  14.693300   1.256230   4.778490  14.744900   0.000551   0.001919   9.820090  -0.001623   0.001588   1.754770  -0.343327 -11.075600   1.788120   0.000204   0.001200   1.190900   0.003353   0.000883  11.755100  -7.562820 -32.327100  20.926600   0.001970   0.001137  13.937100   0.001350   0.000399   1.809410  14.178000   1.638330   1.235920   0.019455   1.327580  -2.237190  -2.949110  -2.317680  -0.000000   0.000000   0.000000   2.801000  14.403300  -7.841250  -0.375673   2.041580  -3.588680   0.073724  -5.250200  -1.283730  -0.000000   0.000000  -0.000000
  1.392710  89.582800   0.588929  -1.683100 -12.633500   2.870940  -0.459790   7.515540   3.039140  -1.342380  14.995200   6.220720   2.777200   0.642059  -0.030639   4.564150   1.292830  -4.092080  -4.679170  -2.942140  -1.480560 -69.961000  24.280000  -3.471850  -2.074570  -8.649360 -15.388500  17.396600 -16.711800   4.818490  33.975200  30.433200 -71.627100 -31.992600  -0.008128   0.000091 -10.996300   0.002013   0.001262 -30.666200   6.789160 -11.275000 -25.639500  -0.003360  -0.000928 -17.947600  -0.002143  -0.000586 -28.387300  -0.298366   0.552099 -35.008000  -0.001995   0.002522 -23.315300  -0.001265   0.001252 -27.719800  -0.291916   0.555531 -30.344100   0.001950   0.000000 -20.209100   0.000446  -0.001989 -29.630000  -0.310338   0.545488 -44.447300   0.001528  -0.000484 -29.601900   0.000099  -0.001907   3.240820  -3.424580   7.437880  32.982100 -11.186500  55.383800 -38.534500  -8.739820  47.876800 -65.305500  10.912300  39.575500 -21.234900  46.129300  62.575900  79.923000   0.000487  -0.002529  46.568700   0.000447  -0.001957  70.382300   4.718030   1.679170  57.642100  -0.003069   0.004452  43.231700  -0.003048  -0.006251  14.695000   1.287360   4.896430  14.750100   0.000486   0.001966   9.823540  -0.001544   0.001597   1.768290  -0.345798 -11.051900   1.801630   0.000070   0.001214   1.199890   0.003351   0.000906  11.634500  -7.521620 -32.447100  20.738900   0.002046   0.001025  13.812100   0.001381   0.000322   1.808480  14.178200   1.631050   1.225940   0.043165   1.365000  -2.224880  -2.962100  -2.293690  -0.000000   0.000000   0.000000   2.799140  14.396300  -7.837190  -0.390792   2.056210  -3.561000   0.083328  -5.250980  -1.264340   0.000000   0.000000  -0.000000
  1.409330  89.585800   0.582678  -1.696410 -12.633400   2.811400  -0.455815   7.516690   3.035700  -1.333940  14.997800   6.213260   2.793560   0.633619  -0.030581   4.591130   1.275740  -4.107060  -4.686830  -2.938990  -1.489350 -69.971800  24.183700  -3.448590  -2.090450  -8.582920 -15.439200  17.388400 -16.680800   4.796500  34.018500  30.477500 -71.620800 -31.973000  -0.008366   0.000135 -10.986500   0.002069   0.001197 -30.635500   6.780390 -11.270900 -25.613900  -0.003341  -0.001000 -17.929800  -0.002129  -0.000694 -28.382300  -0.299032   0.553346 -34.960300  -0.002038   0.002092 -23.283600  -0.001259   0.000730 -27.711100  -0.292562   0.556789 -30.296300   0.001989   0.000000 -20.177300   0.000439  -0.002024 -29.541700  -0.310853   0.546819 -44.314700   0.001507  -0.000669 -29.513600   0.000129  -0.001916   3.252520  -3.383180   7.437010  33.093400 -11.156900  55.332300 -38.571100  -8.609670  47.910700 -65.247200  10.836100  39.428800 -21.326000  46.224800  62.680100  79.730100   0.000468  -0.002464  46.440300   0.000494  -0.001916  70.314500   4.968790   1.776360  57.591400  -0.003090   0.004634  43.193600  -0.003029  -0.006290  14.669100   1.341170   5.116470  14.728700   0.000403   0.001996   9.809300  -0.001448   0.001611   1.803100  -0.349981 -10.976500   1.836700  -0.000069   0.001243   1.223240   0.003353   0.000929  11.545600  -7.473250 -32.431700  20.592800   0.002111   0.000903  13.714800   0.001424   0.000235   1.802280  14.171400   1.624700   1.219130   0.066368   1.397840  -2.213660  -2.973320  -2.261750   0.000000   0.000000   0.000000   2.794030  14.380500  -7.833210  -0.404639   2.075100  -3.523840   0.093485  -5.249790  -1.243140  -0.000000   0.000000   0.000000
  1.424870  89.588800   0.576329  -1.711050 -12.630000   2.746460  -0.451510   7.517150   3.032970  -1.324900  14.999000   6.207160   2.807500   0.619722  -0.030420   4.613790   1.247730  -4.122020  -4.697480  -2.935710  -1.498140 -69.983200  24.090300  -3.431880  -2.085090  -8.491570 -15.473900  17.389600 -16.663800   4.791130  34.057100  30.504300 -71.612500 -31.966500  -0.008597   0.000177 -10.983300   0.002130   0.001138 -30.625600   6.766470 -11.256200 -25.603500  -0.003322  -0.001071 -17.922500  -0.002114  -0.000798 -28.380700  -0.303694   0.562077 -34.945400  -0.002079   0.001594 -23.273700  -0.001244   0.000205 -27.708300  -0.297081   0.565599 -30.281400   0.002028   0.000000 -20.167400   0.000432  -0.002258 -29.486300  -0.314462   0.556136 -44.231600   0.001487  -0.000875 -29.458300   0.000329  -0.001925   3.264270  -3.343390   7.436150  33.189400 -11.099000  55.286800 -38.583500  -8.542320  47.945500 -65.244700  10.711000  39.322800 -21.491000  46.357800  62.861800  79.444200   0.000450  -0.002353  46.250000   0.000543  -0.001878  70.262100   5.233180   1.874050  57.556700  -0.003107   0.004820  43.167500  -0.003008  -0.006327  14.642500   1.397910   5.333300  14.707300   0.000316   0.002018   9.795050  -0.001347   0.001620   1.890960  -0.361790 -10.843300   1.925460  -0.000206   0.001270   1.282340   0.003355   0.000949  11.526900  -7.422260 -32.348200  20.523800   0.002175   0.000784  13.668900   0.001468   0.000149   1.797540  14.164500   1.621070   1.212100   0.080161   1.429610  -2.202600  -2.979730  -2.225390   0.000000   0.000000  -0.000000   2.785630  14.362000  -7.825790  -0.412186   2.086960  -3.496680   0.104037  -5.244450  -1.213820   0.000000   0.000000  -0.000000
  1.440890  89.592500   0.570676  -1.730860 -12.621400   2.680890  -0.444193   7.516280   3.020160  -1.308120  14.997900   6.179970   2.814440   0.605472  -0.029879   4.625070   1.219000  -4.117830  -4.717830  -2.929400  -1.473120 -69.993200  24.060400  -3.439390  -2.075890  -8.453210 -15.481400  17.415100 -16.663600   4.810680  34.013300  30.459600 -71.587600 -31.986100  -0.008821   0.000221 -10.993100   0.002189   0.001080 -30.661400   6.754600 -11.217500 -25.629400  -0.003302  -0.001141 -17.940600  -0.002100  -0.000899 -28.389100  -0.325830   0.602847 -35.028100  -0.002116   0.001048 -23.328700  -0.001217  -0.000303 -27.722900  -0.318792   0.606600 -30.362000   0.002067   0.000000 -20.221000   0.000426  -0.003334 -29.496000  -0.336909   0.596723 -44.246600   0.001464  -0.001096 -29.468300   0.001395  -0.001934   3.271090  -3.302970   7.466010  33.276600 -11.036900  55.283200 -38.567900  -8.496940  47.905000 -65.467500  10.639300  39.328700 -21.688600  46.418200  63.059000  79.264700   0.000441  -0.002089  46.130500   0.000593  -0.001849  70.378700   5.397330   1.918930  57.657500  -0.003121   0.005021  43.243100  -0.002993  -0.006355  14.769800   1.452970   5.476310  14.840100   0.000233   0.002038   9.883550  -0.001249   0.001619   2.117390  -0.394438 -10.577700   2.154150  -0.000334   0.001276   1.434660   0.003347   0.000959  11.609600  -7.381180 -32.047300  20.600400   0.002248   0.000684  13.719900   0.001504   0.000075   1.800680  14.164900   1.621280   1.200220   0.075165   1.456150  -2.191360  -2.979700  -2.188700  -0.000000   0.000000   0.000000   2.773860  14.347600  -7.807680  -0.410781   2.086030  -3.494230   0.115999  -5.233280  -1.167660  -0.000000   0.000000  -0.000000
  1.456200  89.595600   0.565868  -1.755620 -12.608900   2.608910  -0.436083   7.512380   3.010860  -1.290380  14.990600   6.160160   2.818200   0.594005  -0.029241   4.631190   1.195970  -4.113640  -4.738840  -2.920470  -1.448090 -70.010400  24.052200  -3.451840  -2.072710  -8.440720 -15.482100  17.437300 -16.664600   4.830270  33.964700  30.396900 -71.576600 -32.005700  -0.009040   0.000262 -11.002900   0.002254   0.001019 -30.709900   6.747890 -11.189500 -25.667700  -0.003282  -0.001212 -17.967400  -0.002087  -0.000995 -28.401200  -0.343971   0.636134 -35.145200  -0.002152   0.000473 -23.406700  -0.001179  -0.000778 -27.742000  -0.336630   0.640050 -30.468500   0.002106   0.000000 -20.292000   0.000421  -0.004919 -29.513200  -0.356263   0.629325 -44.272800   0.001442  -0.001337 -29.485700   0.002997  -0.001943   3.276950  -3.259610   7.510190  33.378300 -10.992900  55.311300 -38.502700  -8.442570  47.843900 -65.651100  10.603000  39.381400 -21.822300  46.428000  63.192300  79.178300   0.000433  -0.001823  46.072900   0.000643  -0.001824  70.554700   5.510010   1.942100  57.803000  -0.003127   0.005224  43.352300  -0.002976  -0.006381  14.957300   1.483530   5.539000  15.029000   0.000153   0.002056  10.009400  -0.001153   0.001617   2.343560  -0.427202 -10.323900   2.382310  -0.000461   0.001281   1.586630   0.003338   0.000965  11.696100  -7.345400 -31.700500  20.677000   0.002322   0.000583  13.770900   0.001535   0.000000   1.807060  14.167500   1.622760   1.185890   0.060094   1.482620  -2.179290  -2.979090  -2.148920  -0.000000   0.000000   0.000000   2.761020  14.332200  -7.785330  -0.407037   2.082050  -3.492290   0.128183  -5.218030  -1.112880   0.000000   0.000000  -0.000000
